<svg width="100%" height="100%" id="svg" viewBox="0 0 1440 690" xmlns="http://www.w3.org/2000/svg" class="transition duration-300 ease-in-out delay-150"><defs><linearGradient id="gradient" x1="23%" y1="8%" x2="77%" y2="92%"><stop offset="5%" stop-color="#eb144c"></stop><stop offset="95%" stop-color="#0693e3"></stop></linearGradient></defs><path d="M 0,700 L 0,356 C 61.23349364903194,379.0477740781847 122.46698729806388,402.0955481563695 169,373 C 215.53301270193612,343.9044518436305 247.36554445677643,262.6655814527069 294,236 C 340.63445554322357,209.33441854729315 402.07083487483044,237.24212603280307 458,231 C 513.9291651251696,224.75787396719693 564.3511160439018,184.3659144160809 626,165 C 687.6488839560982,145.6340855839191 760.5247009495623,147.29421630287334 814,118 C 867.4752990504377,88.70578369712665 901.5500801578493,28.45722037242571 944,-21 C 986.4499198421507,-70.45722037242571 1037.2749784190405,-109.12309779257615 1102,-121 C 1166.7250215809595,-132.87690220742385 1245.3500061659886,-117.96482920212108 1304,-134 C 1362.6499938340114,-150.03517079787892 1401.3249969170056,-197.01758539893945 1440,-244 L 1440,700 L 0,700 Z" stroke="none" stroke-width="0" fill="url(#gradient)" fill-opacity="0.4" class="transition-all duration-300 ease-in-out delay-150 path-0" transform="rotate(-180 720 350)"></path><defs><linearGradient id="gradient" x1="23%" y1="8%" x2="77%" y2="92%"><stop offset="5%" stop-color="#eb144c"></stop><stop offset="95%" stop-color="#0693e3"></stop></linearGradient></defs><path d="M 0,700 L 0,531 C 64.05894684917993,535.1619435195462 128.11789369835986,539.3238870390924 180,523 C 231.88210630164014,506.67611296090763 271.5873720557405,469.8663953631767 320,458 C 368.4126279442595,446.1336046368233 425.53261807867796,459.2105315082008 480,425 C 534.467381921322,390.7894684917992 586.2821556295474,309.2914786040202 639,275 C 691.7178443704526,240.70852139597983 745.3387594031325,253.62355407571835 808,248 C 870.6612405968675,242.37644592428165 942.3628067579232,218.21430509310642 987,173 C 1031.6371932420768,127.78569490689358 1049.2100135651747,61.51922555185596 1090,49 C 1130.7899864348253,36.48077444814404 1194.7971389813786,77.70879269946973 1257,67 C 1319.2028610186214,56.291207300530274 1379.6014305093108,-6.354396349734863 1440,-69 L 1440,700 L 0,700 Z" stroke="none" stroke-width="0" fill="url(#gradient)" fill-opacity="0.53" class="transition-all duration-300 ease-in-out delay-150 path-1" transform="rotate(-180 720 350)"></path><defs><linearGradient id="gradient" x1="23%" y1="8%" x2="77%" y2="92%"><stop offset="5%" stop-color="#eb144c"></stop><stop offset="95%" stop-color="#0693e3"></stop></linearGradient></defs><path d="M 0,700 L 0,706 C 68.22532988037983,673.681045751634 136.45065976075966,641.362091503268 183,641 C 229.54934023924034,640.637908496732 254.42269083734124,672.2326797385621 296,642 C 337.57730916265876,611.7673202614379 395.8585768898754,519.7071895424838 456,501 C 516.1414231101246,482.2928104575163 578.1430016031571,536.9385620915033 641,517 C 703.8569983968429,497.0614379084967 767.5694166974965,402.53856209150325 824,358 C 880.4305833025035,313.46143790849675 929.5793316068564,318.90718954248365 976,313 C 1022.4206683931436,307.09281045751635 1066.113256875077,289.8326797385621 1121,264 C 1175.886743124923,238.1673202614379 1241.967640892835,203.76209150326798 1297,176 C 1352.032359107165,148.23790849673202 1396.0161795535823,127.11895424836601 1440,106 L 1440,700 L 0,700 Z" stroke="none" stroke-width="0" fill="url(#gradient)" fill-opacity="1" class="transition-all duration-300 ease-in-out delay-150 path-2" transform="rotate(-180 720 350)"></path></svg>